<?xml version="1.0" encoding="iso-8859-1"?>
<!-- Generator: Adobe Illustrator 19.0.0, SVG Export Plug-In . SVG Version: 6.00 Build 0)  -->
<svg xmlns="http://www.w3.org/2000/svg" xmlns:xlink="http://www.w3.org/1999/xlink" version="1.1" id="Capa_1" x="0px" y="0px" viewBox="0 0 488 488" style="enable-background:new 0 0 488 488;" xml:space="preserve" width="512px" height="512px">
<g>
	<g>
		<g>
			<path d="M452.65,150.6L298.95,5.2c-3.1-3.1-8.3-5.2-13.5-5.2H49.85c-11.4,0-20.8,9.3-20.8,20.8v446.4c0,11.4,9.3,20.8,20.8,20.8     h388.3c11.4,0,20.8-9.3,20.8-20.8V165.1C458.85,159.9,456.75,154.7,452.65,150.6z M417.35,447.5H69.55v-407h207.6l140.1,133.9     v273.1H417.35z" fill="#32a7c7"/>
		</g>
		<g>
			<path d="M144.05,243.2h-21.2c-5.8,0-10.4,4.7-10.4,10.4V358c0,5.8,4.7,10.4,10.4,10.4s10.4-4.7,10.4-10.4v-41.7h10.8     c20.1,0,36.5-16.4,36.5-36.5C180.55,259.6,164.15,243.2,144.05,243.2z M144.05,295.4h-10.8v-31.3h10.8c8.6,0,15.6,7,15.6,15.6     C159.65,288.4,152.65,295.4,144.05,295.4z" fill="#32a7c7"/>
			<path d="M339.05,243.2h-21.2c-5.8,0-10.4,4.7-10.4,10.4V358c0,5.8,4.7,10.4,10.4,10.4c5.8,0,10.4-4.7,10.4-10.4v-41.7h10.8     c20.1,0,36.5-16.4,36.5-36.5C375.55,259.6,359.15,243.2,339.05,243.2z M339.05,295.4h-10.8v-31.3h10.8c8.6,0,15.6,7,15.6,15.6     C354.65,288.4,347.65,295.4,339.05,295.4z" fill="#32a7c7"/>
			<path d="M276.15,243.2c-5.8,0-10.4,4.7-10.4,10.4v41.7h-44.9v-41.7c0-5.8-4.7-10.4-10.4-10.4c-5.8,0-10.4,4.7-10.4,10.4V358     c0,5.8,4.7,10.4,10.4,10.4c5.8,0,10.4-4.7,10.4-10.4v-41.7h44.9V358c0,5.8,4.7,10.4,10.4,10.4c5.8,0,10.4-4.7,10.4-10.4V253.7     C286.55,247.9,281.85,243.2,276.15,243.2z" fill="#32a7c7"/>
		</g>
	</g>
</g>
<g>
</g>
<g>
</g>
<g>
</g>
<g>
</g>
<g>
</g>
<g>
</g>
<g>
</g>
<g>
</g>
<g>
</g>
<g>
</g>
<g>
</g>
<g>
</g>
<g>
</g>
<g>
</g>
<g>
</g>
</svg>
