<?xml version="1.0" encoding="iso-8859-1"?>
<!-- Generator: Adobe Illustrator 19.0.0, SVG Export Plug-In . SVG Version: 6.00 Build 0)  -->
<svg version="1.1" id="Layer_1" xmlns="http://www.w3.org/2000/svg" xmlns:xlink="http://www.w3.org/1999/xlink" x="0px" y="0px"
	 viewBox="0 0 512 512" style="enable-background:new 0 0 512 512;" xml:space="preserve">
<g>
	<polygon style="fill:#F4411E;" points="428.427,390.665 453.255,423.266 384.959,423.758 366.305,489.453 341.478,456.852 
		255.199,344.911 323.494,256.127 	"/>
	<polygon style="fill:#F4411E;" points="460.084,71.73 323.494,256.127 255.199,344.911 174.572,456.291 149.759,488.892 
		131.104,423.197 62.809,422.704 87.622,390.103 186.904,256.127 255.199,167.344 316.664,85.389 371.3,10.265 378.13,10.265 	"/>
	<polygon style="fill:#F4411E;" points="193.733,85.389 255.199,167.344 186.904,256.127 51.928,76.452 138.878,10.265 
		371.3,10.265 316.664,85.389 	"/>
</g>
<path d="M336.386,255.966L474.405,69.642L381.552,0H135.415L37.594,74.462l136.501,181.706L79.453,383.887L42.21,432.821
	l81.123,0.584l22.16,78.041l37.248-48.94l72.717-100.447l77.854,101.011L370.574,512l22.158-78.033l81.13-0.586l-37.341-49.029
	L336.386,255.966z M198.667,75.125L154.991,20.53h196.152l-39.706,54.595H198.667z M255.199,150.237l-40.936-54.583h81.872
	L255.199,150.237z M66.262,78.442l67.601-51.459l51.758,64.697l56.689,75.586l-55.308,71.9L66.262,78.442z M166.33,450.172
	l-12.305,16.166l-15.149-53.348l-55.467-0.4l12.461-16.373l99.217-133.891l60.008-78.01l0.103,0.138l81.995-109.328h-0.372
	l39.064-53.712l69.876,52.408L315.312,249.929l-60.123,78.159l-0.249-0.324L166.33,450.172z M377.187,413.55l-15.151,53.356
	l-12.429-16.321l-81.453-105.681l55.396-72.015l96.711,123.995l12.388,16.265L377.187,413.55z"/>
<g>
</g>
<g>
</g>
<g>
</g>
<g>
</g>
<g>
</g>
<g>
</g>
<g>
</g>
<g>
</g>
<g>
</g>
<g>
</g>
<g>
</g>
<g>
</g>
<g>
</g>
<g>
</g>
<g>
</g>
</svg>
